<svg 
    id="eQSpH4u5Efe1" 
    xmlns="http://www.w3.org/2000/svg" 
    xmlns:xlink="http://www.w3.org/1999/xlink" 
    viewBox="0 0 48 48" 
    shape-rendering="geometricPrecision" 
    width="100px" 
    text-rendering="geometricPrecision">

    <style>
        #first-card-1 {
            animation: first-card-animation 1300ms linear infinite normal forwards;
        }

        @keyframes first-card-animation {
            0% {
                opacity: 0;
            }
            30% {
                opacity: 1;
            }
            100% {
                opacity: 1;
            }
        }

        #second-card-2 {
            animation: second-card-animation 1300ms linear infinite normal forwards;
        }

        @keyframes second-card-animation {
            0% {
                opacity: 0;
            }
            25% {
                opacity: 0;
            }
            50% {
                opacity: 1;
            }
            100% {
                opacity: 1;
            }
        }

        #third-card-3 {
            animation: third-card-animation 1300ms linear infinite normal forwards;
        }

        @keyframes third-card-animation {
            0% {
                opacity: 0;
            }
            45% {
                opacity: 0;
            }
            85% {
                opacity: 1;
            }
            100% {
                opacity: 1;
            }
        }
    </style>

    <g 
        id="first-card-1" 
        transform="matrix(1.1647-.10611 0.10967 1.1268-174.11-187.92)" 
        opacity="0">
        <path 
            d="M97.631,191.6h16.756c.491207,0,.962296.195131,1.309632.542468s.542468.818425.542468,1.309632v28.484c0,.491207-.195131.962296-.542468,1.309632s-.818425.542468-1.309632.542468h-16.756c-.491207,0-.962296-.195131-1.309632-.542468s-.542468-.818425-.542468-1.309632v-28.484c0-.491207.195131-.962296.542468-1.309632s.818425-.542468,1.309632-.542468Z" 
            transform="matrix(.961339-.275369 0.275369 0.961339-12.3036 33.5726)" 
            paint-order="stroke fill markers" 
            fill="#402e7a" 
            fill-rule="evenodd" 
            stroke-width="1.4611"/>
    </g>

    <path 
        id="second-card-2" 
        d="M36.868,40.159L18.226,43.6196c-1.342985.249239-2.640532-.602033-2.8982-1.9014L9.1663,10.6452c-.123772-.624016.013744-1.270045.382294-1.795958s.937941-.888626,1.582906-1.008342l18.642-3.4606c1.342985-.249239,2.640532.602033,2.8982,1.9014l6.1615,31.073c.123772.624016-.013744,1.270045-.382294,1.795958s-.937941.888626-1.582906,1.008342Z" 
        opacity="0" 
        paint-order="stroke fill markers" 
        fill="#4c3bcf" 
        fill-rule="evenodd" 
        stroke-width="1.6812"/>

    <g 
        id="third-card-3" 
        transform="matrix(.43373 0 0 0.41967-24.139-35.709)" 
        opacity="0">
        <path 
            d="M97.896,191.6h16.227c.561384,0,1.099775.223009,1.496733.619967s.619967.935349.619967,1.496733v27.954c0,.561384-.223009,1.099775-.619967,1.496733s-.935349.619967-1.496733.619967h-16.227c-.561384,0-1.099775-.223009-1.496733-.619967s-.619967-.935349-.619967-1.496733v-27.954c0-.561384.223009-1.099775.619967-1.496733s.935349-.619967,1.496733-.619967Z" 
            transform="matrix(2.697 0.017037-.017037 2.697-157.66-422.98)" 
            paint-order="stroke fill markers" 
            fill="#4b70f5" 
            fill-rule="evenodd" 
            stroke-width="1.4611"/>
        <g 
            transform="matrix(1.8404-.20606 0.20606 1.8404-114.65-67.78)">
            <path 
                d="M150.57,109.32L68.976,181.258c-.249528.22001-.336825.5715-.219229.882691s.41553.517105.748199.517109h34.861c1.169037,0,2.116745.947663,2.1168,2.1167l.00082,18.868c.000008.255311.171728.478691.418453.544342s.506755-.042848.633647-.264392l11.128-19.428c.650644-1.135964,1.859597-1.836719,3.1687-1.8367h74.88c.475333.000006.919686-.23587,1.186025-.629577s.319943-.893921.143075-1.335123l-1.9652-4.9026c-.475725-1.186758-1.625643-1.964681-2.9042-1.9647h-70.552c-1.309073-.000004-2.517989.700752-3.1686,1.8367l-3.1531,5.5053c-.126897.221564-.38694.330078-.633687.264433s-.41849-.289033-.418513-.544363l-.00054-4.9454c-.00011-1.169053-.947847-2.1167-2.1169-2.1167h-15.313c-.380291.000006-.725798-.221346-.884752-.566823s-.102274-.751876.145142-1.040677l53.705-62.691c.050632-.059133.046906-.147354-.008532-.202007s-.143702-.057122-.202108-.005653l-.0005.00044Z" 
                transform="matrix(.19087 0.022741-.022741 0.19087 94.026 93.411)" 
                paint-order="stroke fill markers" 
                fill="#3dc2ec" 
                fill-rule="evenodd" 
                stroke-width="1.61"/>
            <path 
                d="M126.01,164.21l-2.645,4.6186c-.108737.189868-.108124.423276.001608.61257s.311972.305821.530772.30582h68.699c.237696.000001.459904-.117936.593115-.314798s.160063-.446991.071675-.667642l-1.7988-4.4905c-.237706-.593428-.812634-.982458-1.4519-.98244h-62.416c-.654548-.000004-1.259012.350393-1.5843.91839h-.00017Z" 
                transform="matrix(.19087 0.022741-.022741 0.19087 94.026 93.411)" 
                paint-order="stroke fill markers" 
                fill="#3dc2ec" 
                fill-rule="evenodd" 
                stroke-width="1.61"/>
            <path 
                d="M132.04,153.68l-2.6449,4.6177c-.108742.189853-.108141.423252.00158.612542s.31195.305816.53074.305818h58.446c.237673.000002.459856-.117936.593034-.314791s.159991-.446967.071566-.667579l-1.7995-4.4896c-.237845-.593396-.812812-.982371-1.4521-.98237h-52.162c-.654536.00001-1.258989.35039-1.5843.91836L132.04,153.68Z" 
                transform="matrix(.19087 0.022741-.022741 0.19087 94.026 93.411)" 
                paint-order="stroke fill markers" 
                fill="#3dc2ec" 
                fill-rule="evenodd" 
                stroke-width="1.61"/>
            <path 
                d="M138.07,143.15l-2.6448,4.6172c-.108749.189843-.108155.423237.001558.612524s.311937.305815.530722.305816h48.193c.237658-.000002.459825-.11794.592984-.314791s.159954-.446948.071516-.667539l-1.7998-4.4892c-.237894-.593396-.812894-.982351-1.4522-.98233h-41.909c-.654562-.000009-1.259051.350362-1.5844.91834L138.07,143.15Z" 
                transform="matrix(.19087 0.022741-.022741 0.19087 94.026 93.411)" 
                paint-order="stroke fill markers" 
                fill="#3dc2ec" 
                fill-rule="evenodd" 
                stroke-width="1.61"/>
            <path 
                d="M144.11,132.61l-2.6458,4.6183c-.10875.189833-.108161.423217.001544.6125s.31192.305807.530696.30581h37.94c.237673-.000004.459855-.117944.593035-.314799s.16-.446965.071585-.667581l-1.7995-4.4901c-.237806-.593384-.812738-.982366-1.452-.98238h-31.655c-.65455.000006-1.259028.350358-1.5844.91831L144.11,132.61Z" 
                transform="matrix(.19087 0.022741-.022741 0.19087 94.026 93.411)" 
                paint-order="stroke fill markers" 
                fill="#3dc2ec" 
                fill-rule="evenodd" 
                stroke-width="1.61"/>
            <path 
                d="M150.14,122.08l-2.6458,4.6188c-.108749.18984-.108157.423232.001554.612518s.311933.305811.530716.305812h27.686c.237678-.000003.459864-.117942.59305-.314798s.16001-.44697.0716-.667592l-1.7996-4.4906c-.237803-.593388-.812735-.982374-1.452-.98239h-21.401c-.65456-.000011-1.259049.350355-1.5844.91833L150.14,122.08Z" 
                transform="matrix(.19087 0.022741-.022741 0.19087 94.026 93.411)" 
                paint-order="stroke fill markers" 
                fill="#3dc2ec" 
                fill-rule="evenodd" 
                stroke-width="1.61"/>
            <path 
                d="M156.17,111.55l-2.645,4.6182c-.108737.18986-.108128.423262.001597.612552s.311959.305817.530753.305818h17.432c.237673-.000004.459855-.117944.593035-.314799s.16-.446965.071585-.667581l-1.7995-4.4901c-.237806-.593384-.812738-.982366-1.452-.98238h-11.148c-.654538.000012-1.258992.350396-1.5843.91837L156.17,111.55Z" 
                transform="matrix(.19087 0.022741-.022741 0.19087 94.026 93.411)" 
                paint-order="stroke fill markers" 
                fill="#3dc2ec" 
                fill-rule="evenodd" 
                stroke-width="1.61"/>
            <path 
                d="M163.95,97.977l-4.3875,7.6609c-.108736.189863-.108126.423267.001601.612559s.311963.305819.530759.305821h7.1784c.237097,0,.458665-.117927.591085-.314599s.158347-.446326.069165-.666011l-3.0594-7.5364c-.074126-.182588-.245947-.306866-.442563-.320107s-.383548.086877-.481487.257877Z" 
                transform="matrix(.19087 0.022741-.022741 0.19087 94.014 93.512)" 
                paint-order="stroke fill markers" 
                fill="#3dc2ec" 
                fill-rule="evenodd" 
                stroke-width="1.61"/>
        </g>
    </g>

</svg>
