<?xml version="1.0" encoding="UTF-8" standalone="no"?>
<svg
   width="82px"
   height="68px"
   viewBox="0 0 82 68"
   version="1.1"
   id="svg1"
   sodipodi:docname="logo-detal-white.svg"
   inkscape:version="1.3.2 (1:1.3.2+202404261509+091e20ef0f)"
   xmlns:inkscape="http://www.inkscape.org/namespaces/inkscape"
   xmlns:sodipodi="http://sodipodi.sourceforge.net/DTD/sodipodi-0.dtd"
   xmlns="http://www.w3.org/2000/svg"
   xmlns:svg="http://www.w3.org/2000/svg">
  <defs
     id="defs1">
    <inkscape:path-effect
       effect="fillet_chamfer"
       id="path-effect6"
       is_visible="true"
       lpeversion="1"
       nodesatellites_param="F,0,0,1,0,1,0,1 @ F,0,0,1,0,1,0,1 @ F,0,0,1,0,1,0,1 | F,0,0,1,0,1,0,1 @ F,0,0,1,0,1,0,1 @ F,0,0,1,0,1,0,1 @ F,0,0,1,0,1,0,1 @ F,0,0,1,0,1,0,1 @ F,0,0,1,0,1,0,1 @ F,0,0,1,0,1,0,1 @ F,0,0,1,0,1,0,1 @ F,0,0,1,0,1,0,1 @ F,0,0,1,0,1,0,1 @ F,0,0,1,0,1,0,1 | F,0,0,1,0,1,0,1 @ F,0,0,1,0,1,0,1 @ F,0,0,1,0,1,0,1 @ F,0,0,1,0,1,0,1 | F,0,0,1,0,1,0,1 @ F,0,0,1,0,1,0,1 @ F,0,0,1,0,1,0,1 @ F,0,0,1,0,1,0,1 | F,0,0,1,0,1,0,1 @ F,0,0,1,0,1,0,1 @ F,0,0,1,0,1,0,1 @ F,0,0,1,0,1,0,1 | F,0,0,1,0,1,0,1 @ F,0,0,1,0,1,0,1 @ F,0,0,1,0,1,0,1 @ F,0,0,1,0,1,0,1 | F,0,0,1,0,1,0,1 @ F,0,0,1,0,1,0,1 @ F,0,0,1,0,1,0,1 @ F,0,0,1,0,1,0,1 | F,0,0,1,0,1,0,1 @ F,0,0,1,0,1,0,1 @ F,0,0,1,0,1,0,1 @ F,0,0,1,0,1,0,1"
       radius="1"
       unit="px"
       method="auto"
       mode="F"
       chamfer_steps="1"
       flexible="false"
       use_knot_distance="true"
       apply_no_radius="true"
       apply_with_radius="true"
       only_selected="false"
       hide_knots="false" />
    <inkscape:path-effect
       effect="fillet_chamfer"
       id="path-effect3"
       is_visible="true"
       lpeversion="1"
       nodesatellites_param="F,0,0,1,0,0,0,1 @ F,0,0,1,0,0,0,1 @ F,0,0,1,0,0,0,1 | F,0,0,1,0,0,0,1 @ F,0,0,1,0,0,0,1 @ F,0,0,1,0,0,0,1 @ F,0,0,1,0,0,0,1 @ F,0,0,1,0,0,0,1 @ F,0,0,1,0,0,0,1 @ F,0,0,1,0,0,0,1 @ F,0,0,1,0,0,0,1 @ F,0,0,1,0,0,0,1 @ F,0,0,1,0,0,0,1 @ F,0,0,1,0,0,0,1 | F,0,0,1,0,0,0,1 @ F,0,0,1,0,0,0,1 @ F,0,0,1,0,0,0,1 @ F,0,0,1,0,0,0,1 | F,0,0,1,0,0,0,1 @ F,0,0,1,0,0,0,1 @ F,0,0,1,0,0,0,1 @ F,0,0,1,0,0,0,1 | F,0,0,1,0,0,0,1 @ F,0,0,1,0,0,0,1 @ F,0,0,1,0,0,0,1 @ F,0,0,1,0,0,0,1 | F,0,0,1,0,0,0,1 @ F,0,0,1,0,0,0,1 @ F,0,0,1,0,0,0,1 @ F,0,0,1,0,0,0,1 | F,0,0,1,0,0,0,1 @ F,0,0,1,0,0,0,1 @ F,0,0,1,0,0,0,1 @ F,0,0,1,0,0,0,1 | F,0,0,1,0,0,0,1 @ F,0,0,1,0,0,0,1 @ F,0,0,1,0,0,0,1 @ F,0,0,1,0,0,0,1"
       radius="0"
       unit="px"
       method="auto"
       mode="F"
       chamfer_steps="1"
       flexible="false"
       use_knot_distance="true"
       apply_no_radius="true"
       apply_with_radius="true"
       only_selected="false"
       hide_knots="false" />
    <inkscape:path-effect
       effect="fillet_chamfer"
       id="path-effect2"
       is_visible="true"
       lpeversion="1"
       nodesatellites_param="F,0,0,1,0,0,0,1 @ F,0,0,1,0,0,0,1 @ F,0,0,1,0,0,0,1 | F,0,0,1,0,0,0,1 @ F,0,0,1,0,0,0,1 @ F,0,0,1,0,0,0,1 @ F,0,0,1,0,0,0,1 @ F,0,0,1,0,0,0,1 @ F,0,0,1,0,0,0,1 @ F,0,0,1,0,0,0,1 @ F,0,0,1,0,0,0,1 @ F,0,0,1,0,0,0,1 @ F,0,0,1,0,0,0,1 @ F,0,0,1,0,0,0,1 | F,0,0,1,0,0,0,1 @ F,0,0,1,0,0,0,1 @ F,0,0,1,0,0,0,1 @ F,0,0,1,0,0,0,1 | F,0,0,1,0,0,0,1 @ F,0,0,1,0,0,0,1 @ F,0,0,1,0,0,0,1 @ F,0,0,1,0,0,0,1 | F,0,0,1,0,0,0,1 @ F,0,0,1,0,0,0,1 @ F,0,0,1,0,0,0,1 @ F,0,0,1,0,0,0,1 | F,0,0,1,0,0,0,1 @ F,0,0,1,0,0,0,1 @ F,0,0,1,0,0,0,1 @ F,0,0,1,0,0,0,1 | F,0,0,1,0,0,0,1 @ F,0,0,1,0,0,0,1 @ F,0,0,1,0,0,0,1 @ F,0,0,1,0,0,0,1 | F,0,0,1,0,0,0,1 @ F,0,0,1,0,0,0,1 @ F,0,0,1,0,0,0,1 @ F,0,0,1,0,0,0,1"
       radius="0"
       unit="px"
       method="auto"
       mode="F"
       chamfer_steps="1"
       flexible="false"
       use_knot_distance="true"
       apply_no_radius="true"
       apply_with_radius="true"
       only_selected="false"
       hide_knots="false" />
    <inkscape:path-effect
       effect="fill_between_many"
       method="originald"
       linkedpaths="#Fill-1,0,1|"
       id="path-effect4" />
    <inkscape:path-effect
       effect="fill_between_many"
       method="originald"
       linkedpaths="#Fill-1,0,1|"
       id="path-effect5" />
  </defs>
  <sodipodi:namedview
     id="namedview1"
     pagecolor="#505050"
     bordercolor="#eeeeee"
     borderopacity="1"
     inkscape:showpageshadow="0"
     inkscape:pageopacity="0"
     inkscape:pagecheckerboard="0"
     inkscape:deskcolor="#505050"
     inkscape:zoom="7.8644071"
     inkscape:cx="36.620688"
     inkscape:cy="46.920257"
     inkscape:window-width="1920"
     inkscape:window-height="1044"
     inkscape:window-x="0"
     inkscape:window-y="0"
     inkscape:window-maximized="1"
     inkscape:current-layer="Logo-Detal-White" />
  <g
     id="Detal"
     stroke="none"
     stroke-width="1"
     opacity="0.3">
    <g
       id="Home_Desktop_HD_1"
       transform="translate(-70.000000, -3551.000000)">
      <g
         id="Group-6"
         transform="translate(0.000000, 3501.000000)">
        <g
           id="Group-28">
          <g
             id="Logo-Detal-White"
             transform="translate(70.000000, 50.000000)">
            <g
               id="Logo---Detal-Copy">
              <path
                 d="m 61.699177,5.8995862 h -3.77373 A 0.57966778,0.57966778 59.900512 0 1 57.422436,5.0318296 l 2.384887,-4.16407304 a 0.48660009,0.48660009 3.8534661 0 1 0.873118,0.0588109 L 62.323048,4.9730188 A 0.67331449,0.67331449 123.95295 0 1 61.699177,5.8995862 Z M 52.005049,7.5031603 18.235802,46.922633 a 0.46010215,0.46010215 65.292739 0 0 0.349418,0.759436 h 10.141815 a 1.0001021,1.0001021 44.997076 0 1 1.000102,1 l 3.78e-4,3.701448 a 0.266149,0.266149 14.897874 0 0 0.4971,0.132248 l 2.271465,-3.965944 a 1.7251459,1.7251459 149.9008 0 1 1.496998,-0.867752 H 78.44695 a 1.4781221,1.4781221 34.079692 0 1 1.372026,0.928222 l 1.454828,3.629866 A 0.67653411,0.67653411 124.07969 0 1 80.64583,53.168379 H 33.503986 a 1.7251956,1.7251956 149.90151 0 0 -1.49702,0.867739 l -7.225152,12.614281 a 0.26612941,0.26612941 14.900355 0 1 -0.49706,-0.132261 l -5.01e-4,-12.349759 a 1.0000405,1.0000405 44.99884 0 0 -1.00004,-1 H 1 A 0.3778836,0.3778836 69.299243 0 1 0.7500936,52.507047 L 51.905537,7.4050558 a 0.07004089,0.07004089 44.591983 0 1 0.09951,0.098104 z m 12.08152,1.8570776 0.862877,2.1531791 a 0.67656459,0.67656459 124.08089 0 1 -0.628013,0.928238 H 54.178454 A 0.57965088,0.57965088 59.901237 0 1 53.675465,11.573911 L 54.978024,9.299744 A 1.7251764,1.7251764 149.90124 0 1 56.475035,8.432 h 6.239547 a 1.4780555,1.4780555 34.08089 0 1 1.371987,0.9282379 z m 2.622255,6.5414831 0.862877,2.153179 a 0.67656459,0.67656459 124.08089 0 1 -0.628013,0.928238 H 50.431461 a 0.57957788,0.57957788 59.904368 0 1 -0.502894,-0.86769 l 1.302951,-2.274275 a 1.7253937,1.7253937 149.90437 0 1 1.497106,-0.86769 l 12.608213,0 a 1.4780555,1.4780555 34.08089 0 1 1.371987,0.928238 z m 2.622255,6.541482 0.862877,2.15318 a 0.67656465,0.67656465 124.08089 0 1 -0.628013,0.928238 H 46.683886 a 0.57957782,0.57957782 59.90437 0 1 -0.502894,-0.86769 l 1.302952,-2.274276 a 1.7253938,1.7253938 149.90437 0 1 1.497106,-0.86769 l 18.978042,0 a 1.4780554,1.4780554 34.080892 0 1 1.371987,0.928238 z m 2.621837,6.542004 0.863133,2.152723 a 0.67643665,0.67643665 124.07586 0 1 -0.62785,0.928173 H 42.937475 A 0.57960865,0.57960865 59.903048 0 1 42.434541,31.19839 l 1.30245,-2.273643 a 1.7253021,1.7253021 149.90305 0 1 1.497066,-0.867713 l 25.346709,0 a 1.478335,1.478335 34.075861 0 1 1.37215,0.928173 z m 2.622139,6.541529 0.862783,2.152631 a 0.6765278,0.6765278 124.07944 0 1 -0.627966,0.928219 h -35.61939 a 0.57960865,0.57960865 59.903048 0 1 -0.502934,-0.867713 l 1.30245,-2.273643 a 1.7253021,1.7253021 149.90305 0 1 1.497066,-0.867713 h 31.715957 a 1.4781359,1.4781359 34.079444 0 1 1.372034,0.928219 z m 2.622093,6.541548 0.862527,2.153087 a 0.67665575,0.67665575 124.08447 0 1 -0.628129,0.928284 H 35.443489 a 0.57965075,0.57965075 59.901242 0 1 -0.502988,-0.867744 l 1.302558,-2.274167 A 1.7251767,1.7251767 149.90124 0 1 37.740071,41.14 h 38.085206 a 1.4778564,1.4778564 34.084473 0 1 1.371871,0.928284 z"
                 id="Fill-1"
                 fill="#8bb5e6"
                 inkscape:label="Fill-1"
                 style="display:inline"
                 sodipodi:nodetypes="cccccccccccccccccccccccccccccccccccccccccccccc"
                 inkscape:path-effect="#path-effect6"
                 inkscape:original-d="m 62.699177,5.8995862 h -5.77373 L 60.304312,0 Z M 52.655631,6.7437241 17.58522,47.682069 h 12.141815 l 5.82e-4,5.701448 3.265461,-5.701448 H 79.44695 l 2.19888,5.48631 H 32.503986 L 24.284794,67.518138 24.284213,53.168379 H 0 Z M 63.714582,8.432 65.321433,12.441655 H 53.178454 L 55.475035,8.432 Z m 2.622255,6.541483 1.606851,4.009655 H 49.431461 l 2.297163,-4.009655 z m 2.622255,6.541482 1.606851,4.009656 H 45.683886 l 2.297164,-4.009656 z m 2.621674,6.542069 1.607433,4.009069 H 41.937475 l 2.296582,-4.009069 z m 2.622255,6.541483 1.606851,4.009069 h -37.61939 l 2.296582,-4.009069 z M 76.825277,41.14 78.431546,45.149655 H 34.443489 L 36.740071,41.14 Z" />
            </g>
          </g>
        </g>
      </g>
    </g>
  </g>
</svg>
