<svg xmlns="http://www.w3.org/2000/svg" xmlns:xlink="http://www.w3.org/1999/xlink" width="82px" height="68px" viewBox="0 0 82 68" version="1.1">
    <title>Logo-Detal-White-Footer</title>
    <desc fill="#ebeaeb"></desc>
    <defs fill="#ebebeb"/>
    <g id="Detal" stroke="none" stroke-width="1" fill="none" fill-rule="evenodd" opacity="0.3">
        <g id="Home_Desktop_HD_1" transform="translate(-70.000000, -3551.000000)" fill="#FFFFFF">
            <g id="Group-6" transform="translate(0.000000, 3501.000000)">
                <g id="Group-28">
                    <g id="Logo-Detal-White" transform="translate(70.000000, 50.000000)">
                        <g id="Logo---Detal-Copy">
                            <path d="M60.3043121,0 L56.9254468,5.89958621 L62.6991773,5.89958621 L60.3043121,0 Z M0,53.1683793 L24.2842128,53.1683793 L24.2847943,67.5181379 L32.5039858,53.1683793 L81.6458298,53.1683793 L79.4469504,47.682069 L32.993078,47.682069 L29.727617,53.3835172 L29.7270355,47.682069 L17.5852199,47.682069 L52.6556312,6.74372414 L0,53.1683793 Z M55.4750355,8.432 L53.1784539,12.4416552 L65.3214326,12.4416552 L63.7145816,8.432 L55.4750355,8.432 Z M51.7286241,14.9734828 L49.431461,18.9831379 L67.9436879,18.9831379 L66.3368369,14.9734828 L51.7286241,14.9734828 Z M47.9810496,21.5149655 L45.6838865,25.5246207 L70.5659433,25.5246207 L68.9590922,21.5149655 L47.9810496,21.5149655 Z M44.2340567,28.0570345 L41.9374752,32.0661034 L73.1881986,32.0661034 L71.580766,28.0570345 L44.2340567,28.0570345 Z M40.4870638,34.5985172 L38.1904823,38.6075862 L75.8098723,38.6075862 L74.2030213,34.5985172 L40.4870638,34.5985172 Z M36.7400709,41.14 L34.4434894,45.1496552 L78.4315461,45.1496552 L76.8252766,41.14 L36.7400709,41.14 Z" id="Fill-1" fill="#ebebeb"/>
                        </g>
                    </g>
                </g>
            </g>
        </g>
    </g>
</svg>